<?xml version="1.0" encoding="UTF-8" standalone="no"?>
<!-- Created with Inkscape (http://www.inkscape.org/) -->

<svg
   width="160mm"
   height="122mm"
   viewBox="0 0 160 122"
   version="1.1"
   id="svg5"
   inkscape:version="1.1.1 (3bf5ae0d25, 2021-09-20)"
   sodipodi:docname="console.svg"
   xmlns:inkscape="http://www.inkscape.org/namespaces/inkscape"
   xmlns:sodipodi="http://sodipodi.sourceforge.net/DTD/sodipodi-0.dtd"
   xmlns="http://www.w3.org/2000/svg"
   xmlns:svg="http://www.w3.org/2000/svg">
  <sodipodi:namedview
     id="namedview7"
     pagecolor="#ffffff"
     bordercolor="#666666"
     borderopacity="1.0"
     inkscape:pageshadow="2"
     inkscape:pageopacity="0.0"
     inkscape:pagecheckerboard="0"
     inkscape:document-units="mm"
     showgrid="false"
     inkscape:zoom="0.73406285"
     inkscape:cx="464.53788"
     inkscape:cy="378.03302"
     inkscape:window-width="1920"
     inkscape:window-height="1009"
     inkscape:window-x="-8"
     inkscape:window-y="-8"
     inkscape:window-maximized="1"
     inkscape:current-layer="layer1" />
  <defs
     id="defs2" />
  <g
     inkscape:label="Camada 1"
     inkscape:groupmode="layer"
     id="layer1">
    <g
       id="g830"
       transform="matrix(0.88710713,0,0,0.74667728,74.907357,96.898753)">
</g>
    <g
       id="g832"
       transform="matrix(0.88710713,0,0,0.74667728,74.907357,96.898753)">
</g>
    <g
       id="g834"
       transform="matrix(0.88710713,0,0,0.74667728,74.907357,96.898753)">
</g>
    <g
       id="g836"
       transform="matrix(0.88710713,0,0,0.74667728,74.907357,96.898753)">
</g>
    <g
       id="g838"
       transform="matrix(0.88710713,0,0,0.74667728,74.907357,96.898753)">
</g>
    <g
       id="g840"
       transform="matrix(0.88710713,0,0,0.74667728,74.907357,96.898753)">
</g>
    <g
       id="g842"
       transform="matrix(0.88710713,0,0,0.74667728,74.907357,96.898753)">
</g>
    <g
       id="g844"
       transform="matrix(0.88710713,0,0,0.74667728,74.907357,96.898753)">
</g>
    <g
       id="g846"
       transform="matrix(0.88710713,0,0,0.74667728,74.907357,96.898753)">
</g>
    <g
       id="g848"
       transform="matrix(0.88710713,0,0,0.74667728,74.907357,96.898753)">
</g>
    <g
       id="g850"
       transform="matrix(0.88710713,0,0,0.74667728,74.907357,96.898753)">
</g>
    <g
       id="g852"
       transform="matrix(0.88710713,0,0,0.74667728,74.907357,96.898753)">
</g>
    <g
       id="g854"
       transform="matrix(0.88710713,0,0,0.74667728,74.907357,96.898753)">
</g>
    <g
       id="g856"
       transform="matrix(0.88710713,0,0,0.74667728,74.907357,96.898753)">
</g>
    <g
       id="g858"
       transform="matrix(0.88710713,0,0,0.74667728,74.907357,96.898753)">
</g>
    <g
       id="g92778"
       transform="translate(-21.98665,-41.81068)">
      <path
         style="fill:#333333;fill-opacity:1;stroke-width:0.262777"
         d="m 45.821869,102.44846 c -0.06523,-0.10863 -2.685877,-6.525498 -5.823668,-14.259712 -4.011124,-9.88686 -5.634148,-14.175122 -5.466209,-14.442497 0.285636,-0.45477 -2.350084,0.65316 27.663929,-11.62858 13.500415,-5.52437 24.723653,-9.975926 24.940534,-9.892343 0.500005,0.192689 0.05962,-0.826421 6.374244,14.750994 2.969283,7.324855 5.361929,13.567179 5.316991,13.87183 -0.06946,0.470985 -3.966125,2.144122 -26.028042,11.175859 -14.270486,5.842071 -26.151731,10.621939 -26.402762,10.621939 -0.251031,0 -0.509791,-0.0889 -0.575017,-0.19749 z"
         id="path86556" />
      <g
         id="g828"
         transform="matrix(0.88710712,0,0,0.74667729,74.907357,96.898754)">
	<g
   id="g826"
   transform="matrix(0.6737131,0.87797765,-0.62200975,0.6737131,66.536498,-26.526997)"
   style="fill:#464655;fill-opacity:1">
		<path
   style="fill:#464655;fill-opacity:1"
   d="M 69.745134,25.450983 C 69.308696,17.329519 62.226117,17.866756 55.982829,18.34033 48.986075,18.871057 44.681094,18.904007 44.37074,13.128766 l -2.049827,0.155486 c 0.436277,8.11847 7.521851,7.581006 13.772125,7.106902 6.989768,-0.530197 11.290756,-0.562844 11.601326,5.216389 L -1.0187323,30.819658 1.1858211,71.843131 83.235762,65.619373 81.031155,24.594901 Z m -32.256564,6.563131 5.460881,-0.414226 0.293676,5.464873 -5.460881,0.414226 z m 0.440675,8.200304 5.460881,-0.414226 0.293676,5.464873 -5.460882,0.414226 z m 0.440889,8.204295 5.460881,-0.414226 0.293676,5.464874 -5.460881,0.414225 z m -9.081868,-15.782579 5.464873,-0.414529 0.293676,5.464874 -5.464873,0.414528 z m 0.440675,8.200304 5.464873,-0.414529 0.293676,5.464873 -5.464873,0.414529 z m 0.440889,8.204295 5.464873,-0.414528 0.293676,5.464873 -5.464873,0.414528 z m -9.084861,-15.782352 5.464873,-0.414528 0.293676,5.464873 -5.464874,0.414528 z m 0.440674,8.200304 5.464873,-0.414529 0.293676,5.464873 -5.464873,0.414529 z m 0.44089,8.204295 5.464873,-0.414528 0.293676,5.464873 -5.464874,0.414529 z m -9.089852,-15.781973 5.464873,-0.414529 0.293676,5.464873 -5.464873,0.414529 z m 0.440675,8.200304 5.464873,-0.414529 0.293676,5.464873 -5.464873,0.414529 z m 0.440889,8.204295 5.464873,-0.414529 0.293676,5.464874 -5.464873,0.414528 z M 11.753334,64.161571 6.2854671,64.576327 5.9920057,59.115446 11.459873,58.70069 Z M 11.31282,55.964261 5.8449533,56.379017 5.5512774,50.914144 11.019145,50.499388 Z M 10.87177,47.756972 5.4039032,48.171728 5.1102273,42.706854 10.578094,42.292099 Z m -0.44105,-8.20729 -5.4678669,0.414756 -0.2936759,-5.464873 5.4678668,-0.414756 z m 42.346088,21.500123 -38.287045,2.904199 -0.293462,-5.460881 38.291037,-2.904502 0.293462,5.460882 z m -0.440514,-8.197309 -5.467867,0.414755 -0.293676,-5.464873 5.467867,-0.414756 z m -0.44105,-8.20729 -5.467867,0.414756 -0.293676,-5.464873 5.467867,-0.414756 z m -0.44105,-8.207289 -5.467867,0.414755 -0.293676,-5.464873 5.467867,-0.414755 z m 9.086396,15.792256 -5.467867,0.414756 -0.293676,-5.464874 5.467867,-0.414755 z m -0.44105,-8.20729 -5.467868,0.414756 -0.293675,-5.464873 5.467867,-0.414756 z m -0.441051,-8.207289 -5.467867,0.414756 -0.293676,-5.464874 5.467868,-0.414755 z m 8.644348,7.585042 -5.467867,0.414756 -0.293676,-5.464873 5.467867,-0.414756 z m -0.44105,-8.207289 -5.467867,0.414755 -0.293676,-5.464873 5.467867,-0.414755 z m 9.090388,15.791953 -5.467867,0.414756 -0.293676,-5.464873 5.467867,-0.414756 z m -0.44105,-8.207289 -5.467868,0.414755 -0.293675,-5.464873 5.467867,-0.414756 z m -0.441051,-8.20729 -5.467867,0.414756 -0.293676,-5.464873 5.467868,-0.414756 z"
   id="path824" />

	</g>

<g
   id="g956"
   transform="matrix(0.64652627,0,0,0.78879665,89.566126,-6.6899506)"
   style="fill:#5b5d6e;fill-opacity:1">
  <g
     id="g900"
     style="fill:#5b5d6e;fill-opacity:1">
	<path
   d="m 34.5,3 h -5 c -0.552,0 -1,0.447 -1,1 0,0.553 0.448,1 1,1 h 5 c 0.552,0 1,-0.447 1,-1 0,-0.553 -0.448,-1 -1,-1 z"
   id="path894"
   style="fill:#5b5d6e;fill-opacity:1" />

	<path
   d="m 26.5,3 h -1 c -0.552,0 -1,0.447 -1,1 0,0.553 0.448,1 1,1 h 1 c 0.552,0 1,-0.447 1,-1 0,-0.553 -0.448,-1 -1,-1 z"
   id="path896"
   style="fill:#5b5d6e;fill-opacity:1" />

	<path
   d="M 43.539,0 H 17.461 C 15.277,0 13.5,1.777 13.5,3.962 V 6 9 c -0.552,0 -1,0.447 -1,1 v 1 c 0,0.553 0.448,1 1,1 v 1 c -0.552,0 -1,0.447 -1,1 v 1 c 0,0.553 0.448,1 1,1 v 1 c -0.552,0 -1,0.447 -1,1 v 1 c 0,0.553 0.448,1 1,1 v 32 4.038 c 0,2.185 1.777,3.962 3.961,3.962 h 26.077 c 2.185,0 3.961,-1.777 3.961,-3.962 V 52 6 3.962 C 47.5,1.777 45.723,0 43.539,0 Z M 27.882,58 H 17.461 C 16.379,58 15.5,57.12 15.5,56.038 V 52 h 12.382 c -0.84,0.734 -1.382,1.799 -1.382,3 0,1.201 0.542,2.266 1.382,3 z m -0.675,-47.293 -3,3 C 24.012,13.902 23.756,14 23.5,14 c -0.256,0 -0.512,-0.098 -0.707,-0.293 -0.391,-0.391 -0.391,-1.023 0,-1.414 l 3,-3 c 0.391,-0.391 1.023,-0.391 1.414,0 0.391,0.391 0.391,1.023 0,1.414 z m 0.583,1.583 c 0.37,-0.37 1.05,-0.37 1.42,0.01 0.18,0.18 0.29,0.43 0.29,0.7 0,0.26 -0.11,0.52 -0.29,0.71 C 29.02,13.89 28.76,14 28.5,14 28.24,14 27.98,13.89 27.79,13.71 27.61,13.52 27.5,13.26 27.5,13 c 0,-0.271 0.11,-0.521 0.29,-0.71 z m -5.583,-1.583 -4,4 C 18.012,14.902 17.756,15 17.5,15 c -0.256,0 -0.512,-0.098 -0.707,-0.293 -0.391,-0.391 -0.391,-1.023 0,-1.414 l 4,-4 c 0.391,-0.391 1.023,-0.391 1.414,0 0.391,0.391 0.391,1.023 0,1.414 z M 22.5,15 c 0,0.26 -0.11,0.52 -0.29,0.71 C 22.02,15.89 21.76,16 21.5,16 21.24,16 20.98,15.89 20.79,15.71 20.61,15.52 20.5,15.26 20.5,15 c 0,-0.26 0.11,-0.521 0.29,-0.71 0.38,-0.37 1.05,-0.37 1.42,0 0.18,0.189 0.29,0.439 0.29,0.71 z m -5.707,3.293 2,-2 c 0.391,-0.391 1.023,-0.391 1.414,0 0.391,0.391 0.391,1.023 0,1.414 l -2,2 C 18.012,19.902 17.756,20 17.5,20 c -0.256,0 -0.512,-0.098 -0.707,-0.293 -0.391,-0.391 -0.391,-1.023 0,-1.414 z m 0,5 9,-9 c 0.391,-0.391 1.023,-0.391 1.414,0 0.391,0.391 0.391,1.023 0,1.414 l -9,9 C 18.012,24.902 17.756,25 17.5,25 c -0.256,0 -0.512,-0.098 -0.707,-0.293 -0.391,-0.391 -0.391,-1.023 0,-1.414 z M 30.5,57 c -1.103,0 -2,-0.897 -2,-2 0,-1.103 0.897,-2 2,-2 1.103,0 2,0.897 2,2 0,1.103 -0.897,2 -2,2 z m 1.707,-46.293 -1,1 C 31.012,11.902 30.756,12 30.5,12 c -0.256,0 -0.512,-0.098 -0.707,-0.293 -0.391,-0.391 -0.391,-1.023 0,-1.414 l 1,-1 c 0.391,-0.391 1.023,-0.391 1.414,0 0.391,0.391 0.391,1.023 0,1.414 z M 45.5,56.038 C 45.5,57.12 44.62,58 43.539,58 H 33.118 c 0.84,-0.734 1.382,-1.799 1.382,-3 0,-1.201 -0.542,-2.266 -1.382,-3 H 45.5 Z M 45.5,6 h -30 V 3.962 C 15.5,2.88 16.38,2 17.461,2 H 43.538 C 44.62,2 45.5,2.88 45.5,3.962 Z"
   id="path898"
   style="fill:#5b5d6e;fill-opacity:1" />

</g>
  <g
     id="g902"
     style="fill:#5b5d6e;fill-opacity:1">
</g>
  <g
     id="g904"
     style="fill:#5b5d6e;fill-opacity:1">
</g>
  <g
     id="g906"
     style="fill:#5b5d6e;fill-opacity:1">
</g>
  <g
     id="g908"
     style="fill:#5b5d6e;fill-opacity:1">
</g>
  <g
     id="g910"
     style="fill:#5b5d6e;fill-opacity:1">
</g>
  <g
     id="g912"
     style="fill:#5b5d6e;fill-opacity:1">
</g>
  <g
     id="g914"
     style="fill:#5b5d6e;fill-opacity:1">
</g>
  <g
     id="g916"
     style="fill:#5b5d6e;fill-opacity:1">
</g>
  <g
     id="g918"
     style="fill:#5b5d6e;fill-opacity:1">
</g>
  <g
     id="g920"
     style="fill:#5b5d6e;fill-opacity:1">
</g>
  <g
     id="g922"
     style="fill:#5b5d6e;fill-opacity:1">
</g>
  <g
     id="g924"
     style="fill:#5b5d6e;fill-opacity:1">
</g>
  <g
     id="g926"
     style="fill:#5b5d6e;fill-opacity:1">
</g>
  <g
     id="g928"
     style="fill:#5b5d6e;fill-opacity:1">
</g>
  <g
     id="g930"
     style="fill:#5b5d6e;fill-opacity:1">
</g>
</g>
<g
   id="g1206"
   transform="matrix(1.4102492,0,0,1.7870085,-43.19006,-6.3882998)">
  <path
     style="fill:#5b5d6e;fill-opacity:1"
     d="M 55.781,51.749 H 1.219 C 0.546,51.749 0,51.203 0,50.53 V 30.968 c 0,-0.673 0.546,-1.219 1.219,-1.219 h 54.562 c 0.673,0 1.219,0.546 1.219,1.219 V 50.53 c 0,0.673 -0.546,1.219 -1.219,1.219 z"
     id="path1114" />
  <polygon
     style="fill:#464655;fill-opacity:1"
     points="28,32.749 28,29.749 26,29.749 26,32.749 0,32.749 0,34.749 26,34.749 26,46.749 0,46.749 0,48.749 26,48.749 26,51.749 28,51.749 28,48.749 57,48.749 57,46.749 28,46.749 28,34.749 57,34.749 57,32.749 "
     id="polygon1116" />
  <rect
     y="39.749001"
     style="fill:#839594"
     width="19"
     height="2"
     id="rect1118"
     x="0" />
  <rect
     x="21"
     y="39.749001"
     style="fill:#839594"
     width="2"
     height="2"
     id="rect1120" />
  <circle
     style="fill:none;stroke:#e7eced;stroke-width:2;stroke-miterlimit:10"
     cx="49"
     cy="40.749001"
     r="3"
     id="circle1122" />
  <path
     style="fill:#5b5d6e;fill-opacity:1"
     d="m 28.144,21.104 h 5.473 c 0.986,0 1.939,0.353 2.687,0.994 l 5.288,4.533 c 0.354,0.303 0.872,0.355 1.266,0.106 C 48.36,23.255 41.686,10.005 40.364,7.51 40.224,7.245 39.993,7.048 39.711,6.946 L 35.264,5.33 C 34.874,5.188 34.44,5.24 34.095,5.47 l -0.593,0.395 c -0.234,0.156 -0.508,0.239 -0.789,0.239 h -4.569 -4.569 c -0.281,0 -0.555,-0.083 -0.789,-0.239 L 22.193,5.47 C 21.848,5.24 21.414,5.188 21.024,5.33 l -4.447,1.617 c -0.281,0.102 -0.512,0.299 -0.653,0.564 -1.323,2.495 -7.996,15.745 -2.494,19.227 0.394,0.249 0.912,0.197 1.266,-0.106 l 5.288,-4.533 c 0.748,-0.641 1.701,-0.994 2.687,-0.994 h 5.473 z"
     id="path1124" />
  <path
     style="fill:#464655;fill-opacity:1"
     d="m 56.068,29.359 -8.85,-8.151 c -0.074,-0.059 -0.166,-0.092 -0.262,-0.092 h -1.983 c 0.148,2.421 -0.368,4.515 -2.116,5.621 -0.394,0.249 -0.912,0.197 -1.266,-0.106 L 36.303,22.098 C 35.588,21.485 34.684,21.145 33.745,21.116 H 22.542 c -0.939,0.03 -1.843,0.369 -2.558,0.982 l -5.288,4.533 c -0.354,0.303 -0.872,0.355 -1.266,0.106 -1.748,-1.107 -2.264,-3.201 -2.116,-5.621 H 10.25 c -0.095,0 -0.187,0.032 -0.262,0.092 l -9.056,8.151 c -0.309,0.247 -0.134,0.746 0.262,0.746 h 54.613 c 0.395,-0.001 0.57,-0.499 0.261,-0.746 z"
     id="path1126" />
  <circle
     style="fill:#494959;fill-opacity:1"
     cx="34.5"
     cy="17.249001"
     r="2.5"
     id="circle1128" />
  <circle
     style="fill:#464655;fill-opacity:1"
     cx="19.5"
     cy="11.249"
     r="2.5"
     id="circle1130" />
  <polygon
     style="fill:#494959;fill-opacity:1"
     points="23,19.749 25,19.749 25,17.749 27,17.749 27,15.749 25,15.749 25,13.749 23,13.749 23,15.749 21,15.749 21,17.749 23,17.749 "
     id="polygon1132" />
  <rect
     x="32"
     y="9.7489996"
     style="fill:#7383bf"
     width="2"
     height="2"
     id="rect1134" />
  <rect
     x="38"
     y="9.7489996"
     style="fill:#d75a4a"
     width="2"
     height="2"
     id="rect1136" />
  <rect
     x="35"
     y="11.749"
     style="fill:#61b872"
     width="2"
     height="2"
     id="rect1138" />
  <rect
     x="35"
     y="7.7490001"
     style="fill:#ebba16"
     width="2"
     height="2"
     id="rect1140" />
  <g
     id="g1142">
</g>
  <g
     id="g1144">
</g>
  <g
     id="g1146">
</g>
  <g
     id="g1148">
</g>
  <g
     id="g1150">
</g>
  <g
     id="g1152">
</g>
  <g
     id="g1154">
</g>
  <g
     id="g1156">
</g>
  <g
     id="g1158">
</g>
  <g
     id="g1160">
</g>
  <g
     id="g1162">
</g>
  <g
     id="g1164">
</g>
  <g
     id="g1166">
</g>
  <g
     id="g1168">
</g>
  <g
     id="g1170">
</g>
</g>
<g
   id="g1368"
   transform="matrix(0.13160549,0,0,0.17076883,44.391262,-85.742564)">
  <g
     id="g1301">
	<path
   style="fill:#5b5d6e"
   d="M 282.483,203.034 H 229.517 V 79.448 c 0,-4.875 3.953,-8.828 8.828,-8.828 h 35.31 c 4.875,0 8.828,3.953 8.828,8.828 z"
   id="path1297" />

	<path
   style="fill:#5b5d6e"
   d="M 441.379,441.379 H 70.621 C 31.618,441.379 0,409.761 0,370.759 V 264.828 C 0,225.826 31.618,194.207 70.621,194.207 H 441.38 c 39.003,0 70.621,31.618 70.621,70.621 v 105.931 c -10e-4,39.002 -31.619,70.62 -70.622,70.62 z"
   id="path1299" />

</g>
  <g
     id="g1309">
	<path
   style="fill:#464655"
   d="m 441.379,211.862 c 29.206,0 52.966,23.761 52.966,52.966 v 105.931 c 0,29.205 -23.759,52.966 -52.966,52.966 H 70.621 c -29.206,0 -52.966,-23.761 -52.966,-52.966 V 264.828 c 0,-29.205 23.759,-52.966 52.966,-52.966 h 370.758 m 0,-17.655 H 70.621 C 31.617,194.207 0,225.825 0,264.828 v 105.931 c 0,39.003 31.617,70.621 70.621,70.621 H 441.38 c 39.004,0 70.621,-31.618 70.621,-70.621 V 264.828 C 512,225.825 480.383,194.207 441.379,194.207 Z"
   id="path1303" />

	<path
   style="fill:#464655"
   d="m 291.31,247.172 h -70.62 c -4.875,0 -8.828,-3.953 -8.828,-8.828 v 0 c 0,-4.875 3.953,-8.828 8.828,-8.828 h 70.621 c 4.875,0 8.828,3.953 8.828,8.828 v 0 c -0.001,4.876 -3.954,8.828 -8.829,8.828 z"
   id="path1305" />

	<path
   style="fill:#464655"
   d="M 282.483,97.103 H 229.517 V 79.448 c 0,-4.875 3.953,-8.828 8.828,-8.828 h 35.31 c 4.875,0 8.828,3.953 8.828,8.828 z"
   id="path1307" />

</g>
  <g
     id="g1311">
</g>
  <g
     id="g1313">
</g>
  <g
     id="g1315">
</g>
  <g
     id="g1317">
</g>
  <g
     id="g1319">
</g>
  <g
     id="g1321">
</g>
  <g
     id="g1323">
</g>
  <g
     id="g1325">
</g>
  <g
     id="g1327">
</g>
  <g
     id="g1329">
</g>
  <g
     id="g1331">
</g>
  <g
     id="g1333">
</g>
  <g
     id="g1335">
</g>
  <g
     id="g1337">
</g>
  <g
     id="g1339">
</g>
</g>
<g
   style="fill:#464655;fill-opacity:1"
   id="g1513"
   transform="matrix(0.78230732,-0.37881569,0.32138977,0.93684502,-80.316356,-62.184822)">
  <path
     fill-rule="evenodd"
     clip-rule="evenodd"
     d="m 24.5,43 c 0,-1.3807 -1.1193,-2.5 -2.5,-2.5 h -6 c -4.6944,0 -8.5,3.8056 -8.5,8.5 v 30 c 0,4.6944 3.8056,8.5 8.5,8.5 h 6 c 1.3807,0 2.5,-1.1193 2.5,-2.5 z M 22,41.5 c 0.8284,0 1.5,0.6716 1.5,1.5 v 42 c 0,0.8284 -0.6716,1.5 -1.5,1.5 H 16 C 11.8579,86.5 8.5,83.1421 8.5,79 V 49 c 0,-4.1421 3.3579,-7.5 7.5,-7.5 z"
     fill="#000000"
     id="path1450"
     style="fill:#464655;fill-opacity:1" />
  <path
     fill-rule="evenodd"
     clip-rule="evenodd"
     d="m 103.5,43 c 0,-1.3807 1.119,-2.5 2.5,-2.5 h 6 c 4.694,0 8.5,3.8056 8.5,8.5 v 30 c 0,4.6944 -3.806,8.5 -8.5,8.5 h -6 c -1.381,0 -2.5,-1.1193 -2.5,-2.5 z m 2.5,-1.5 c -0.828,0 -1.5,0.6716 -1.5,1.5 v 42 c 0,0.8284 0.672,1.5 1.5,1.5 h 6 c 4.142,0 7.5,-3.3579 7.5,-7.5 V 49 c 0,-4.1421 -3.358,-7.5 -7.5,-7.5 z"
     fill="#000000"
     id="path1452"
     style="fill:#464655;fill-opacity:1" />
  <path
     fill-rule="evenodd"
     clip-rule="evenodd"
     d="m 23.5,43 c 0,-1.3807 1.1193,-2.5 2.5,-2.5 h 76 c 1.381,0 2.5,1.1193 2.5,2.5 v 42 c 0,1.3807 -1.119,2.5 -2.5,2.5 H 26 c -1.3807,0 -2.5,-1.1193 -2.5,-2.5 z M 26,41.5 c -0.8284,0 -1.5,0.6716 -1.5,1.5 v 42 c 0,0.8284 0.6716,1.5 1.5,1.5 h 76 c 0.828,0 1.5,-0.6716 1.5,-1.5 V 43 c 0,-0.8284 -0.672,-1.5 -1.5,-1.5 z"
     fill="#000000"
     id="path1454"
     style="fill:#464655;fill-opacity:1" />
  <path
     fill-rule="evenodd"
     clip-rule="evenodd"
     d="m 25.5,45 c 0,-1.3807 1.1193,-2.5 2.5,-2.5 h 72 c 1.381,0 2.5,1.1193 2.5,2.5 v 38 c 0,1.3807 -1.119,2.5 -2.5,2.5 H 28 c -1.3807,0 -2.5,-1.1193 -2.5,-2.5 z M 28,43.5 c -0.8284,0 -1.5,0.6716 -1.5,1.5 v 38 c 0,0.8284 0.6716,1.5 1.5,1.5 h 72 c 0.828,0 1.5,-0.6716 1.5,-1.5 V 45 c 0,-0.8284 -0.672,-1.5 -1.5,-1.5 z"
     fill="#000000"
     id="path1456"
     style="fill:#464655;fill-opacity:1" />
  <path
     fill-rule="evenodd"
     clip-rule="evenodd"
     d="m 16.5,49.5 c -1.6569,0 -3,1.3431 -3,3 0,1.6569 1.3431,3 3,3 1.6569,0 3,-1.3431 3,-3 0,-1.6569 -1.3431,-3 -3,-3 z m -4,3 c 0,-2.2091 1.7909,-4 4,-4 2.2091,0 4,1.7909 4,4 0,2.2091 -1.7909,4 -4,4 -2.2091,0 -4,-1.7909 -4,-4 z"
     fill="#000000"
     id="path1458"
     style="fill:#464655;fill-opacity:1" />
  <path
     fill-rule="evenodd"
     clip-rule="evenodd"
     d="m 111.5,62.5 c -1.657,0 -3,1.3431 -3,3 0,1.6569 1.343,3 3,3 1.657,0 3,-1.3431 3,-3 0,-1.6569 -1.343,-3 -3,-3 z m -4,3 c 0,-2.2091 1.791,-4 4,-4 2.209,0 4,1.7909 4,4 0,2.2091 -1.791,4 -4,4 -2.209,0 -4,-1.7909 -4,-4 z"
     fill="#000000"
     id="path1460"
     style="fill:#464655;fill-opacity:1" />
  <path
     fill-rule="evenodd"
     clip-rule="evenodd"
     d="m 109.5,73.5 c -0.552,0 -1,0.4477 -1,1 0,0.5523 0.448,1 1,1 0.552,0 1,-0.4477 1,-1 0,-0.5523 -0.448,-1 -1,-1 z m -2,1 c 0,-1.1046 0.895,-2 2,-2 1.105,0 2,0.8954 2,2 0,1.1046 -0.895,2 -2,2 -1.105,0 -2,-0.8954 -2,-2 z"
     fill="#000000"
     id="path1462"
     style="fill:#464655;fill-opacity:1" />
  <path
     fill-rule="evenodd"
     clip-rule="evenodd"
     d="m 108,43.5 v 3 h -1 v -3 z"
     fill="#000000"
     id="path1464"
     style="fill:#464655;fill-opacity:1" />
  <path
     fill-rule="evenodd"
     clip-rule="evenodd"
     d="m 22,45.5 h -3 v -1 h 3 z"
     fill="#000000"
     id="path1466"
     style="fill:#464655;fill-opacity:1" />
  <path
     fill-rule="evenodd"
     clip-rule="evenodd"
     d="m 109,45.5 h -3 v -1 h 3 z"
     fill="#000000"
     id="path1468"
     style="fill:#464655;fill-opacity:1" />
  <path
     fill-rule="evenodd"
     clip-rule="evenodd"
     d="m 16.5,60.5 c -0.5523,0 -1,0.4477 -1,1 0,0.5523 0.4477,1 1,1 0.5523,0 1,-0.4477 1,-1 0,-0.5523 -0.4477,-1 -1,-1 z m -2,1 c 0,-1.1046 0.8954,-2 2,-2 1.1046,0 2,0.8954 2,2 0,1.1046 -0.8954,2 -2,2 -1.1046,0 -2,-0.8954 -2,-2 z"
     fill="#000000"
     id="path1470"
     style="fill:#464655;fill-opacity:1" />
  <path
     fill-rule="evenodd"
     clip-rule="evenodd"
     d="m 12.5,64.5 c -0.5523,0 -1,0.4477 -1,1 0,0.5523 0.4477,1 1,1 0.5523,0 1,-0.4477 1,-1 0,-0.5523 -0.4477,-1 -1,-1 z m -2,1 c 0,-1.1046 0.8954,-2 2,-2 1.1046,0 2,0.8954 2,2 0,1.1046 -0.8954,2 -2,2 -1.1046,0 -2,-0.8954 -2,-2 z"
     fill="#000000"
     id="path1472"
     style="fill:#464655;fill-opacity:1" />
  <path
     fill-rule="evenodd"
     clip-rule="evenodd"
     d="m 16.5,68.5 c -0.5523,0 -1,0.4477 -1,1 0,0.5523 0.4477,1 1,1 0.5523,0 1,-0.4477 1,-1 0,-0.5523 -0.4477,-1 -1,-1 z m -2,1 c 0,-1.1046 0.8954,-2 2,-2 1.1046,0 2,0.8954 2,2 0,1.1046 -0.8954,2 -2,2 -1.1046,0 -2,-0.8954 -2,-2 z"
     fill="#000000"
     id="path1474"
     style="fill:#464655;fill-opacity:1" />
  <path
     fill-rule="evenodd"
     clip-rule="evenodd"
     d="m 20.5,64.5 c -0.5523,0 -1,0.4477 -1,1 0,0.5523 0.4477,1 1,1 0.5523,0 1,-0.4477 1,-1 0,-0.5523 -0.4477,-1 -1,-1 z m -2,1 c 0,-1.1046 0.8954,-2 2,-2 1.1046,0 2,0.8954 2,2 0,1.1046 -0.8954,2 -2,2 -1.1046,0 -2,-0.8954 -2,-2 z"
     fill="#000000"
     id="path1476"
     style="fill:#464655;fill-opacity:1" />
  <path
     fill-rule="evenodd"
     clip-rule="evenodd"
     d="m 111.5,47.5 c -0.552,0 -1,0.4477 -1,1 0,0.5523 0.448,1 1,1 0.552,0 1,-0.4477 1,-1 0,-0.5523 -0.448,-1 -1,-1 z m -2,1 c 0,-1.1046 0.895,-2 2,-2 1.105,0 2,0.8954 2,2 0,1.1046 -0.895,2 -2,2 -1.105,0 -2,-0.8954 -2,-2 z"
     fill="#000000"
     id="path1478"
     style="fill:#464655;fill-opacity:1" />
  <path
     fill-rule="evenodd"
     clip-rule="evenodd"
     d="m 107.5,51.5 c -0.552,0 -1,0.4477 -1,1 0,0.5523 0.448,1 1,1 0.552,0 1,-0.4477 1,-1 0,-0.5523 -0.448,-1 -1,-1 z m -2,1 c 0,-1.1046 0.895,-2 2,-2 1.105,0 2,0.8954 2,2 0,1.1046 -0.895,2 -2,2 -1.105,0 -2,-0.8954 -2,-2 z"
     fill="#000000"
     id="path1480"
     style="fill:#464655;fill-opacity:1" />
  <path
     fill-rule="evenodd"
     clip-rule="evenodd"
     d="m 111.5,55.5 c -0.552,0 -1,0.4477 -1,1 0,0.5523 0.448,1 1,1 0.552,0 1,-0.4477 1,-1 0,-0.5523 -0.448,-1 -1,-1 z m -2,1 c 0,-1.1046 0.895,-2 2,-2 1.105,0 2,0.8954 2,2 0,1.1046 -0.895,2 -2,2 -1.105,0 -2,-0.8954 -2,-2 z"
     fill="#000000"
     id="path1482"
     style="fill:#464655;fill-opacity:1" />
  <path
     fill-rule="evenodd"
     clip-rule="evenodd"
     d="m 115.5,51.5 c -0.552,0 -1,0.4477 -1,1 0,0.5523 0.448,1 1,1 0.552,0 1,-0.4477 1,-1 0,-0.5523 -0.448,-1 -1,-1 z m -2,1 c 0,-1.1046 0.895,-2 2,-2 1.105,0 2,0.8954 2,2 0,1.1046 -0.895,2 -2,2 -1.105,0 -2,-0.8954 -2,-2 z"
     fill="#000000"
     id="path1484"
     style="fill:#464655;fill-opacity:1" />
  <path
     fill-rule="evenodd"
     clip-rule="evenodd"
     d="m 17.5,74 c 0,-0.2761 0.2239,-0.5 0.5,-0.5 h 2 c 0.2761,0 0.5,0.2239 0.5,0.5 v 2 c 0,0.2761 -0.2239,0.5 -0.5,0.5 h -2 c -0.2761,0 -0.5,-0.2239 -0.5,-0.5 z m 1,0.5 v 1 h 1 v -1 z"
     fill="#000000"
     id="path1486"
     style="fill:#464655;fill-opacity:1" />
</g>
<path
   style="fill:#ff0000;fill-opacity:1;stroke-width:0.681141"
   d="m 381.00294,304.88379 c -1.45157,-1.69532 -46.55269,-112.37039 -46.55847,-114.25131 -0.002,-0.79704 0.3887,-1.77544 0.8692,-2.17422 1.97971,-1.64302 20.01984,-8.4424 23.29669,-8.78061 6.94082,-0.71635 14.53572,2.87442 18.5903,8.78927 1.10602,1.61347 9.62695,21.63089 18.93538,44.48316 18.11321,44.46803 18.5258,45.76709 16.6951,52.56581 -1.10966,4.12096 -4.71511,9.11497 -8.31993,11.52417 -3.04661,2.03615 -19.80281,9.14032 -21.54658,9.13517 -0.47195,-10e-4 -1.35471,-0.58254 -1.96169,-1.29144 z m 3.13744,-29.01001 c 3.80703,-1.96869 4.14156,-7.67645 0.59549,-10.16022 -5.36963,-3.76102 -12.09465,2.97211 -8.33281,8.34288 1.91537,2.73458 4.69916,3.38843 7.73732,1.81734 z m -0.36608,-21.72523 c 3.25839,-2.4853 4.47583,-5.06512 4.47583,-9.48453 0,-6.62409 -4.74927,-11.37337 -11.37337,-11.37337 -5.76818,0 -9.36386,2.55965 -11.13517,7.92675 -1.74806,5.29669 1.26628,11.94897 6.48908,14.32056 3.23425,1.46863 8.65139,0.81661 11.54363,-1.38941 z m -12.36296,-28.91857 c 0.66888,-0.66889 1.3974,-2.33305 1.61892,-3.69812 0.3467,-2.13642 0.11388,-2.77085 -1.67225,-4.55698 -2.76366,-2.76366 -5.65378,-2.79269 -8.36247,-0.084 -2.09509,2.09508 -2.41302,3.62178 -1.34127,6.44069 1.37501,3.61656 6.95352,4.70195 9.75707,1.89841 z m -14.80328,-6.55289 c 5.27965,-5.27965 -2.21875,-13.13204 -8.11279,-8.49578 -2.36458,1.85997 -2.52444,6.23798 -0.3137,8.5912 2.0797,2.21374 6.16358,2.16749 8.42649,-0.0954 z m 20.79622,-8.49282 c 2.70869,-2.7087 2.67966,-5.59882 -0.084,-8.36248 -1.78614,-1.78613 -2.42057,-2.01894 -4.55698,-1.67225 -3.51124,0.56979 -5.257,2.55274 -5.257,5.97122 0,5.54326 5.96808,7.9934 9.89797,4.06351 z m -14.52663,-6.58686 c 3.43178,-3.84072 0.84087,-9.81291 -4.25713,-9.81291 -6.68817,0 -8.04366,9.38783 -1.70285,11.79365 1.76121,0.66824 4.36678,-0.1977 5.95998,-1.98074 z m -15.81871,-6.27278 c 0.01,-0.86263 0.42309,-1.81889 0.91844,-2.12504 1.4481,-0.89497 0.61496,-3.11564 -1.17615,-3.13496 -0.8678,-0.009 -1.87486,-0.54779 -2.23789,-1.1965 -0.93963,-1.67902 -3.589,-0.26022 -3.08844,1.65393 0.23216,0.88775 -0.0643,1.50515 -0.87147,1.81481 -1.85031,0.70988 -0.55721,3.8304 1.37759,3.32444 0.8681,-0.22701 1.54318,0.0151 1.78277,0.63949 0.62654,1.63276 3.27443,0.84834 3.29515,-0.97617 z"
   id="path92156"
   transform="matrix(0.29825409,0,0,0.35434764,-84.440035,-129.77327)" />
<path
   style="fill:#00ffff;fill-opacity:1;stroke-width:0.681141"
   d="m 134.41114,402.35671 c -4.42941,-1.58323 -7.80745,-4.14182 -10.33304,-7.82645 -1.08363,-1.58093 -9.58624,-21.57173 -18.89467,-44.424 -18.072506,-44.3681 -18.522382,-45.77976 -16.721128,-52.46911 1.012105,-3.75867 4.226093,-8.62589 7.187523,-10.88468 3.441418,-2.6249 21.406865,-10.04147 23.220945,-9.58617 0.79268,0.19895 1.80395,1.05966 2.24725,1.91268 2.33918,4.50111 45.76142,112.1047 45.76142,113.40024 0,2.01292 -1.39948,2.8393 -11.91996,7.0386 -10.43973,4.16707 -15.05036,4.80406 -20.54834,2.83889 z m 12.92526,-29.76216 c 2.8892,-1.20719 3.06272,-2.14275 1.17059,-6.3112 -1.50168,-3.30827 -2.3608,-3.50193 -6.73336,-1.51783 -3.25942,1.47901 -3.30802,1.79096 -1.10169,7.07146 1.18002,2.82417 1.60324,2.87228 6.66446,0.75757 z m -11.09079,-11.60866 c 5.32832,-5.67173 -3.13987,-13.60887 -8.64545,-8.10329 -1.4974,1.4974 -1.69886,2.17041 -1.37423,4.59074 0.46792,3.48859 2.42613,5.23402 5.87207,5.23402 1.82567,0 2.98077,-0.47943 4.14761,-1.72147 z m -14.8662,-6.48381 c 1.78613,-1.78614 2.01895,-2.42057 1.67226,-4.55698 -0.56475,-3.48014 -2.55742,-5.25701 -5.89549,-5.25701 -3.71428,0 -5.75873,2.07135 -5.75873,5.83447 0,2.21071 0.39543,3.13355 1.89564,4.42397 2.66065,2.2886 5.50987,2.132 8.08632,-0.44445 z m 20.28806,-7.45572 c 1.54528,-0.82701 2.93932,-4.77387 2.31078,-6.54239 -1.49705,-4.21228 -6.53823,-5.77178 -9.88838,-3.05899 -1.2751,1.03251 -1.60803,1.96162 -1.60803,4.48759 0,2.52597 0.33293,3.45508 1.60803,4.4876 1.7356,1.40541 5.53497,1.71937 7.5776,0.62619 z m -15.34641,-5.87747 c 1.81309,-0.69575 3.26728,-4.23817 2.78817,-6.79203 -0.51185,-2.72839 -2.60269,-4.36425 -5.57806,-4.36425 -3.13428,0 -4.24776,0.58673 -5.42167,2.85682 -2.61265,5.05232 2.6947,10.41648 8.21156,8.29946 z m -9.69689,-17.99766 c 9.25593,-2.57062 11.70509,-13.79205 4.40849,-20.19855 -7.43544,-6.5284 -18.86157,-1.07848 -18.86157,8.9964 0,5.12451 3.41848,9.774 8.17368,11.11707 3.17383,0.89642 3.3495,0.8988 6.2794,0.0851 z m 0.10669,-33.67789 c 3.72824,-1.64881 4.3856,-2.50793 3.26703,-4.26978 -0.41722,-0.65716 -1.50746,-0.4394 -4.70289,0.93936 -3.94049,1.70023 -4.12097,1.87996 -3.42394,3.40976 0.40469,0.88821 0.80172,1.61492 0.88229,1.61492 0.0806,0 1.87044,-0.76242 3.97751,-1.69426 z"
   id="path92348"
   transform="matrix(0.29825409,0,0,0.35434764,-84.440035,-129.77327)" />
</g>
    </g>
  </g>
</svg>
